<svg width="35" height="39" viewBox="0 0 35 39" fill="none" xmlns="http://www.w3.org/2000/svg">
<g clip-path="url(#clip0_1159_1302)">
<path d="M30.8999 0.03125H4.1002C1.8401 0.03125 0 1.82234 0 4.04184V30.3636C0 32.5831 1.83996 34.3742 4.10006 34.3742H26.7801L25.7199 30.7725L28.28 33.0893L30.6999 35.2698L35 38.9688V4.04184C35 1.82234 33.16 0.03125 30.8999 0.03125ZM23.18 25.4576C23.18 25.4576 22.46 24.6204 21.86 23.8805C24.48 23.1601 25.48 21.5637 25.48 21.5637C24.66 22.0894 23.88 22.4594 23.18 22.7123C22.18 23.1213 21.22 23.3937 20.28 23.5495C18.36 23.9 16.6 23.8027 15.1 23.5301C13.9599 23.3158 12.9799 23.0044 12.16 22.693C11.7 22.5177 11.2 22.3036 10.6999 22.031C10.64 21.992 10.58 21.9726 10.52 21.9336C10.4899 21.9191 10.4628 21.8993 10.44 21.8753C10.08 21.6806 9.87998 21.5443 9.87998 21.5443C9.87998 21.5443 10.84 23.1018 13.38 23.8415C12.7801 24.5815 12.04 25.4575 12.04 25.4575C7.61988 25.3212 5.94002 22.4983 5.94002 22.4983C5.94002 16.2293 8.82 11.1479 8.82 11.1479C11.7 9.04527 14.44 9.10369 14.44 9.10369L14.64 9.33739C11.04 10.3495 9.38 11.8877 9.38 11.8877C9.38 11.8877 9.81996 11.6542 10.5599 11.3232C12.6999 10.4081 14.4 10.1551 15.1 10.0967C15.2199 10.0771 15.32 10.0577 15.4401 10.0577C16.7803 9.8877 18.1367 9.87466 19.4801 10.0188C21.3799 10.2329 23.4201 10.7781 25.5 11.8877C25.5 11.8877 23.92 10.4276 20.52 9.41525L20.8 9.10382C20.8 9.10382 23.54 9.04527 26.4199 11.148C26.4199 11.148 29.3001 16.2293 29.3001 22.4983C29.3001 22.4983 27.6 25.3212 23.18 25.4575V25.4576ZM13.88 16.3656C12.74 16.3656 11.8401 17.339 11.8401 18.5266C11.8401 19.7142 12.76 20.6876 13.88 20.6876C15.0201 20.6876 15.9199 19.7142 15.9199 18.5266C15.94 17.339 15.0201 16.3656 13.8801 16.3656M21.1801 16.3656C20.04 16.3656 19.1399 17.339 19.1399 18.5266C19.1399 19.7142 20.0601 20.6876 21.1801 20.6876C22.32 20.6876 23.2199 19.7142 23.2199 18.5266C23.2199 17.339 22.32 16.3656 21.1801 16.3656Z" fill="#FAFAFA"/>
</g>
<defs>
<clipPath id="clip0_1159_1302">
<rect width="35" height="39" fill="white"/>
</clipPath>
</defs>
</svg>
