<svg width="35" height="35" viewBox="0 0 35 35" fill="none" xmlns="http://www.w3.org/2000/svg">
<g clip-path="url(#clip0_1159_1298)">
<path d="M8.87509 34.8762C6.79362 34.7816 5.66291 34.4352 4.91084 34.1418C3.91432 33.7538 3.20385 33.292 2.45594 32.5451C1.70803 31.7982 1.24513 31.0878 0.859215 30.0912C0.565875 29.3392 0.219485 28.2085 0.124825 26.127C0.0208042 23.877 0 23.2019 0 17.5016C0 11.8012 0.0228847 11.1271 0.123785 8.87509C0.218444 6.79362 0.566915 5.66499 0.858175 4.91084C1.24617 3.91432 1.70907 3.20385 2.4549 2.4549C3.20177 1.70803 3.91224 1.24409 4.9098 0.858175C5.66187 0.564835 6.79258 0.218444 8.87405 0.123785C11.1251 0.0208042 11.8012 0 17.4995 0C23.1998 0 23.8739 0.0228847 26.126 0.123785C28.2074 0.218444 29.336 0.566915 30.0902 0.858175C31.0867 1.24409 31.7972 1.70803 32.5451 2.4549C33.293 3.20177 33.7538 3.91328 34.1418 4.9098C34.4352 5.66187 34.7816 6.79258 34.8762 8.87405C34.9792 11.1261 35 11.8002 35 17.5005C35 23.1988 34.9792 23.8749 34.8762 26.127C34.7816 28.2085 34.4331 29.3392 34.1418 30.0912C33.7538 31.0878 33.292 31.7982 32.5451 32.5451C31.7982 33.292 31.0867 33.7538 30.0902 34.1418C29.3381 34.4352 28.2074 34.7816 26.126 34.8762C23.876 34.9792 23.1998 35 17.4995 35C11.8012 35 11.1251 34.9802 8.87509 34.8762Z" fill="#FAFAFA"/>
<path d="M8.87509 34.8762C6.79362 34.7816 5.66291 34.4352 4.91084 34.1418C3.91432 33.7538 3.20385 33.292 2.45594 32.5451C1.70803 31.7982 1.24513 31.0878 0.859215 30.0912C0.565875 29.3392 0.219485 28.2085 0.124825 26.127C0.0208042 23.877 0 23.2019 0 17.5016C0 11.8012 0.0228847 11.1271 0.123785 8.87509C0.218444 6.79362 0.566915 5.66499 0.858175 4.91084C1.24617 3.91432 1.70907 3.20385 2.4549 2.4549C3.20177 1.70803 3.91224 1.24409 4.9098 0.858175C5.66187 0.564835 6.79258 0.218444 8.87405 0.123785C11.1251 0.0208042 11.8012 0 17.4995 0C23.1998 0 23.8739 0.0228847 26.126 0.123785C28.2074 0.218444 29.336 0.566915 30.0902 0.858175C31.0867 1.24409 31.7972 1.70803 32.5451 2.4549C33.293 3.20177 33.7538 3.91328 34.1418 4.9098C34.4352 5.66187 34.7816 6.79258 34.8762 8.87405C34.9792 11.1261 35 11.8002 35 17.5005C35 23.1988 34.9792 23.8749 34.8762 26.127C34.7816 28.2085 34.4331 29.3392 34.1418 30.0912C33.7538 31.0878 33.292 31.7982 32.5451 32.5451C31.7982 33.292 31.0867 33.7538 30.0902 34.1418C29.3381 34.4352 28.2074 34.7816 26.126 34.8762C23.876 34.9792 23.1998 35 17.4995 35C11.8012 35 11.1251 34.9802 8.87509 34.8762Z" fill="#FAFAFA"/>
<path d="M13.2023 17.5749C13.2023 15.1813 15.1422 13.2403 17.5358 13.2403C19.9295 13.2403 21.8704 15.1813 21.8704 17.5749C21.8704 19.9685 19.9295 21.9095 17.5358 21.9095C15.1422 21.9095 13.2023 19.9685 13.2023 17.5749ZM10.8591 17.5749C10.8591 21.2625 13.8483 24.2516 17.5358 24.2516C21.2234 24.2516 24.2126 21.2625 24.2126 17.5749C24.2126 13.8874 21.2234 10.8982 17.5358 10.8982C13.8483 10.8982 10.8593 13.8872 10.8593 17.5749M22.9167 10.6335C22.9165 10.9421 23.0079 11.2438 23.1793 11.5004C23.3506 11.7571 23.5942 11.9572 23.8793 12.0754C24.1644 12.1936 24.4781 12.2246 24.7808 12.1646C25.0835 12.1045 25.3615 11.956 25.5798 11.7379C25.7981 11.5197 25.9469 11.2418 26.0072 10.9391C26.0675 10.6365 26.0367 10.3227 25.9188 10.0376C25.8008 9.75241 25.6009 9.50864 25.3444 9.33709C25.0878 9.16554 24.7862 9.0739 24.4776 9.07378H24.477C24.0633 9.07397 23.6667 9.23834 23.3741 9.53078C23.0815 9.82322 22.917 10.2198 22.9167 10.6335ZM12.2828 28.1589C11.0151 28.1011 10.326 27.89 9.86814 27.7116C9.26107 27.4752 8.82793 27.1937 8.37252 26.739C7.91712 26.2842 7.63522 25.8515 7.39992 25.2444C7.22142 24.7867 7.01026 24.0975 6.95263 22.8297C6.88959 21.4592 6.87701 21.0474 6.87701 17.5751C6.87701 14.1028 6.89063 13.6922 6.95263 12.3205C7.01036 11.0528 7.22309 10.3649 7.39992 9.90585C7.63626 9.29878 7.91774 8.86563 8.37252 8.41023C8.8273 7.95483 9.26003 7.67293 9.86814 7.43763C10.3258 7.25913 11.0151 7.04797 12.2828 6.99034C13.6534 6.9273 14.0651 6.91472 17.5358 6.91472C21.0066 6.91472 21.4188 6.92814 22.7905 6.99055C24.0582 7.04828 24.7461 7.261 25.2051 7.43784C25.8122 7.67314 26.2453 7.95566 26.7007 8.41044C27.1561 8.86522 27.437 9.29899 27.6733 9.90605C27.8518 10.3637 28.063 11.053 28.1206 12.3207C28.1837 13.6924 28.1962 14.103 28.1962 17.5753C28.1962 21.0477 28.1837 21.4582 28.1206 22.83C28.0629 24.0977 27.8507 24.7867 27.6733 25.2446C27.437 25.8517 27.1555 26.2848 26.7007 26.7392C26.246 27.1935 25.8122 27.4754 25.2051 27.7118C24.7474 27.8903 24.0582 28.1014 22.7905 28.1591C21.4199 28.2221 21.0082 28.2347 17.5358 28.2347C14.0635 28.2347 13.6529 28.2221 12.2828 28.1591M12.1751 4.65101C10.7909 4.71405 9.84504 4.93353 9.01901 5.25496C8.16406 5.58689 7.43935 6.0322 6.71567 6.75473C5.992 7.47726 5.54783 8.20208 5.21589 9.05807C4.89447 9.88463 4.67498 10.83 4.61195 12.2142C4.54787 13.6006 4.5332 14.0438 4.5332 17.5749C4.5332 21.106 4.54787 21.5492 4.61195 22.9356C4.67498 24.32 4.89447 25.2652 5.21589 26.0917C5.54783 26.9467 5.9921 27.6729 6.71567 28.3951C7.43924 29.1173 8.16302 29.562 9.01901 29.8949C9.8466 30.2163 10.7909 30.4358 12.1751 30.4988C13.5622 30.5618 14.0047 30.5776 17.5358 30.5776C21.067 30.5776 21.5102 30.5629 22.8966 30.4988C24.2809 30.4358 25.2261 30.2163 26.0527 29.8949C26.9076 29.562 27.6324 29.1176 28.356 28.3951C29.0797 27.6726 29.5229 26.9467 29.8558 26.0917C30.1772 25.2652 30.3978 24.3199 30.4598 22.9356C30.5228 21.5482 30.5375 21.106 30.5375 17.5749C30.5375 14.0438 30.5228 13.6006 30.4598 12.2142C30.3967 10.8299 30.1772 9.88411 29.8558 9.05807C29.5229 8.20312 29.0786 7.47841 28.356 6.75473C27.6335 6.03106 26.9076 5.58689 26.0537 5.25496C25.2261 4.93353 24.2808 4.71301 22.8976 4.65101C21.511 4.58766 21.068 4.57227 17.5374 4.57227C14.0068 4.57227 13.5628 4.58693 12.1756 4.65101" fill="#21222D"/>
</g>
<defs>
<clipPath id="clip0_1159_1298">
<rect width="35" height="35" fill="white"/>
</clipPath>
</defs>
</svg>
