<svg width="27" height="27" viewBox="0 0 27 27" fill="none" xmlns="http://www.w3.org/2000/svg">
<path d="M15.1847 0.0691437C17.5899 0.369841 19.8844 1.31941 21.8308 2.82817C22.4479 3.30823 23.4976 4.34221 24.0092 4.97525C25.3965 6.69503 26.3354 8.6944 26.7574 10.8309C26.9473 11.7858 27 12.3925 27 13.495C27 14.5976 26.9473 15.2042 26.7574 16.1591C26.2299 18.8443 24.927 21.234 22.9332 23.1753C21.335 24.7369 19.5257 25.8078 17.4317 26.4408C16.1499 26.8312 14.9631 27 13.4968 27C12.3943 27 11.7877 26.9472 10.833 26.7573C8.77589 26.3511 6.85062 25.4701 5.16272 24.1618C4.54558 23.6818 3.49591 22.6478 2.98426 22.0148C2.15086 20.9808 1.36493 19.6356 0.890206 18.438C0.499878 17.441 0.162297 16.0483 0.0462536 14.9616C-0.0117679 14.376 -0.0170436 12.5824 0.0409779 12.2289L0.0831761 11.9915L0.114825 12.1762C0.135924 12.2764 0.17812 12.5138 0.209769 12.7037C0.236142 12.8936 0.325812 13.2682 0.399659 13.5425C1.22779 16.618 3.2902 19.1133 6.13854 20.4849C8.68095 21.7088 11.5398 21.8987 14.1561 21.0124C18.2387 19.6303 21.0607 16.1169 21.5196 11.8333C21.5882 11.1633 21.5512 9.91302 21.4405 9.19557C20.9974 6.39433 19.4994 3.88325 17.2682 2.20568C15.9231 1.19808 14.2352 0.459523 12.7055 0.206305C12.5157 0.174652 12.2783 0.132449 12.1781 0.111348L11.9935 0.0796951L12.2308 0.0374913C12.6106 -0.0258136 14.5833 -0.00471073 15.1847 0.0691437Z" fill="#00C2FF"/>
</svg>
