<svg width="35" height="35" viewBox="0 0 35 35" fill="none" xmlns="http://www.w3.org/2000/svg">
<g clip-path="url(#clip0_1159_1304)">
<path d="M35 17.5C35 27.1687 27.1687 35 17.5 35C7.83125 35 0 27.1687 0 17.5C0 7.83125 7.83125 0 17.5 0C27.1687 0 35 7.83125 35 17.5Z" fill="#FAFAFA"/>
<path d="M14.2923 25.5215C13.7236 25.5215 13.8257 25.3027 13.6215 24.7632L11.959 19.2798L22.284 12.834L23.4944 13.1548L22.4882 15.8965L14.2923 25.5215Z" fill="#989AAD"/>
<path d="M14.291 25.5208C14.7285 25.5208 14.9181 25.3167 15.166 25.0833C15.5452 24.7188 20.416 19.9792 20.416 19.9792L17.4264 19.25L14.6556 21L14.291 25.375V25.5208Z" fill="#989AAD"/>
<path d="M14.583 21.0573L21.6413 26.2636C22.4434 26.7011 23.0267 26.4823 23.2309 25.5198L26.1038 11.9865C26.3955 10.8053 25.6517 10.2803 24.8788 10.6303L8.0205 17.1344C6.86842 17.6011 6.883 18.2428 7.81633 18.5198L12.1476 19.8761L22.1663 13.5615C22.633 13.2698 23.0705 13.4303 22.7205 13.7511L14.583 21.0573Z" fill="#21222D"/>
</g>
<defs>
<clipPath id="clip0_1159_1304">
<rect width="35" height="35" fill="white"/>
</clipPath>
</defs>
</svg>
