<svg width="35" height="35" viewBox="0 0 35 35" fill="none" xmlns="http://www.w3.org/2000/svg">
<g clip-path="url(#clip0_1159_1309)">
<path d="M30.8333 0H4.16667C1.86917 0 0 1.86917 0 4.16667V30.8333C0 33.1308 1.86917 35 4.16667 35H30.8333C33.1308 35 35 33.1308 35 30.8333V4.16667C35 1.86917 33.1308 0 30.8333 0ZM27.505 15.2692C27.3139 15.2877 27.122 15.2975 26.93 15.2983C25.8933 15.2985 24.8728 15.0404 23.9608 14.5475C23.0487 14.0546 22.2737 13.3424 21.7058 12.475V22.0892C21.7058 23.4946 21.2891 24.8684 20.5083 26.037C19.7275 27.2055 18.6177 28.1163 17.3193 28.6541C16.0209 29.1919 14.5921 29.3326 13.2137 29.0585C11.8353 28.7843 10.5692 28.1075 9.57542 27.1137C8.58165 26.12 7.90488 24.8538 7.6307 23.4754C7.35652 22.097 7.49724 20.6683 8.03507 19.3699C8.57289 18.0715 9.48366 16.9617 10.6522 16.1809C11.8208 15.4001 13.1946 14.9833 14.6 14.9833C14.7483 14.9833 14.8933 14.9967 15.0392 15.0058V18.5075C14.8933 18.49 14.75 18.4633 14.6 18.4633C13.6381 18.4633 12.7157 18.8454 12.0356 19.5256C11.3554 20.2057 10.9733 21.1281 10.9733 22.09C10.9733 23.0519 11.3554 23.9743 12.0356 24.6544C12.7157 25.3346 13.6381 25.7167 14.6 25.7167C16.6033 25.7167 18.3725 24.1383 18.3725 22.135L18.4075 5.80667H21.7575C21.9106 7.26224 22.5704 8.6177 23.6216 9.63604C24.6729 10.6544 26.0486 11.2708 27.5083 11.3775V15.2692" fill="#FAFAFA"/>
</g>
<defs>
<clipPath id="clip0_1159_1309">
<rect width="35" height="35" fill="white"/>
</clipPath>
</defs>
</svg>
